<?xml version="1.0" encoding="UTF-8"?>
<svg id="Layer_2" data-name="Layer 2" xmlns="http://www.w3.org/2000/svg" viewBox="0 0 254.88 65.36">
  <defs>
    <style>
      .cls-1 {
        fill: #00a853;
      }

      .cls-1, .cls-2 {
        stroke-width: 0px;
      }

      .cls-2 {
        fill: #1f2e38;
      }
    </style>
  </defs>
  <g id="Layer_1-2" data-name="Layer 1">
    <g>
      <g>
        <path class="cls-2" d="M9.01,58.34c0,1.3-.43,2.38-1.3,3.26-.87.88-1.94,1.32-3.21,1.32s-2.34-.44-3.21-1.32c-.87-.87-1.3-1.96-1.3-3.26s.43-2.38,1.3-3.26c.87-.88,1.93-1.32,3.21-1.32s2.34.44,3.21,1.33c.87.87,1.3,1.96,1.3,3.25ZM1.15,58.34c0,1.01.32,1.85.96,2.51.65.66,1.45.99,2.4.99s1.75-.33,2.39-.99c.64-.65.97-1.49.97-2.51s-.32-1.86-.97-2.51c-.64-.66-1.43-.99-2.39-.99s-1.76.33-2.4.99c-.64.66-.96,1.5-.96,2.51Z"/>
        <path class="cls-2" d="M13.89,62.92c-.44,0-.84-.09-1.21-.28-.36-.19-.64-.44-.84-.75h-.05l.05.83v2.65h-1.13v-8.65h1.08v.83h.05c.2-.31.48-.56.84-.75.36-.19.77-.28,1.21-.28.79,0,1.46.31,2.01.93.56.63.84,1.38.84,2.27s-.28,1.65-.84,2.27c-.55.62-1.22.93-2.01.93ZM13.7,61.89c.54,0,.99-.2,1.36-.61.37-.4.55-.92.55-1.56s-.18-1.15-.55-1.56c-.37-.41-.82-.61-1.36-.61s-1,.2-1.37.61c-.36.41-.54.93-.54,1.56s.18,1.16.54,1.57c.37.4.82.6,1.37.6Z"/>
        <path class="cls-2" d="M21.07,62.92c-.88,0-1.61-.3-2.18-.91-.57-.6-.86-1.37-.86-2.29s.28-1.68.83-2.28,1.27-.91,2.13-.91,1.6.29,2.12.86c.53.58.79,1.38.79,2.42v.12h-4.73c.02.59.21,1.06.59,1.42.38.36.82.54,1.35.54.72,0,1.28-.36,1.69-1.08l1,.49c-.27.51-.64.9-1.12,1.19-.48.29-1.02.43-1.62.43ZM19.27,59h3.44c-.03-.42-.2-.76-.51-1.03-.31-.27-.72-.41-1.23-.41-.42,0-.79.13-1.1.39s-.51.61-.61,1.05Z"/>
        <path class="cls-2" d="M26.68,62.72h-1.13v-6h1.08v.98h.05c.11-.32.35-.59.7-.81.35-.22.7-.34,1.05-.34s.6.05.83.15l-.34,1.09c-.14-.06-.36-.09-.66-.09-.42,0-.79.17-1.11.51-.31.34-.47.74-.47,1.2v3.31Z"/>
        <path class="cls-2" d="M32.65,56.52c.83,0,1.49.22,1.97.67.48.45.72,1.06.72,1.83v3.7h-1.08v-.83h-.05c-.47.69-1.09,1.03-1.86,1.03-.66,0-1.21-.2-1.66-.59-.44-.39-.67-.88-.67-1.47,0-.62.23-1.11.7-1.48.47-.37,1.1-.55,1.88-.55.67,0,1.22.12,1.65.37v-.26c0-.39-.16-.72-.47-1s-.67-.41-1.09-.41c-.63,0-1.13.27-1.49.8l-.99-.62c.55-.78,1.35-1.18,2.42-1.18ZM31.19,60.88c0,.29.12.54.37.73s.54.29.88.29c.47,0,.9-.18,1.27-.53.37-.35.56-.76.56-1.24-.35-.28-.84-.42-1.47-.42-.46,0-.84.11-1.15.33s-.46.49-.46.82Z"/>
        <path class="cls-2" d="M39.48,62.82c-.49,0-.9-.15-1.22-.45-.32-.3-.49-.72-.5-1.26v-3.36h-1.05v-1.03h1.05v-1.84h1.13v1.84h1.47v1.03h-1.47v2.99c0,.4.08.67.23.81.16.14.33.21.53.21.09,0,.18-.01.26-.03.09-.02.17-.05.24-.08l.35,1c-.29.11-.64.16-1.03.16Z"/>
        <path class="cls-2" d="M43.57,54.65c0,.22-.08.41-.23.56-.16.16-.34.23-.56.23s-.41-.08-.56-.23c-.16-.15-.23-.34-.23-.56s.08-.41.23-.56.34-.23.56-.23.41.08.56.23c.16.16.23.34.23.56ZM43.34,56.72v6h-1.13v-6h1.13Z"/>
        <path class="cls-2" d="M45.01,59.72c0-.92.29-1.69.87-2.29.59-.6,1.33-.91,2.22-.91s1.62.3,2.2.91c.59.6.88,1.37.88,2.29s-.29,1.69-.88,2.29c-.58.6-1.31.91-2.2.91s-1.63-.3-2.22-.91c-.58-.6-.87-1.37-.87-2.29ZM46.14,59.72c0,.65.19,1.17.56,1.57s.84.6,1.4.6,1.02-.2,1.4-.6.56-.92.56-1.57-.19-1.16-.56-1.56c-.38-.41-.85-.61-1.4-.61s-1.01.2-1.4.61c-.38.4-.56.92-.56,1.56Z"/>
        <path class="cls-2" d="M52.7,56.72h1.08v.83h.05c.17-.29.43-.54.79-.73.35-.2.72-.29,1.11-.29.73,0,1.3.21,1.7.63s.59,1.02.59,1.79v3.77h-1.13v-3.7c-.02-.98-.52-1.47-1.48-1.47-.45,0-.82.18-1.13.54-.3.36-.45.8-.45,1.3v3.32h-1.13v-6Z"/>
        <path class="cls-2" d="M64.48,61.05c0,.52-.23.96-.69,1.32-.46.36-1.03.54-1.73.54-.6,0-1.13-.16-1.59-.47-.46-.31-.78-.73-.98-1.24l1-.43c.15.36.36.64.64.84.28.2.59.3.92.3.36,0,.66-.08.9-.23.24-.15.36-.34.36-.55,0-.38-.29-.67-.88-.85l-1.03-.26c-1.17-.29-1.75-.86-1.75-1.69,0-.55.22-.99.67-1.32.44-.33,1.01-.5,1.71-.5.53,0,1.01.13,1.44.38s.73.59.9,1.02l-1,.42c-.11-.25-.3-.45-.56-.59-.26-.14-.54-.21-.86-.21-.29,0-.56.07-.79.22-.23.15-.35.33-.35.54,0,.34.32.59.97.73l.91.23c1.19.29,1.79.89,1.79,1.8Z"/>
        <path class="cls-2" d="M74.99,61.2l.82,1.08-.84.64-.6-.8c-.6.53-1.27.8-2.03.8-.89,0-1.65-.3-2.27-.89-.62-.6-.93-1.33-.93-2.2,0-.51.14-1,.41-1.46.27-.46.64-.83,1.11-1.12-.42-.55-.64-1.03-.64-1.46,0-.56.21-1.03.62-1.43.42-.4.91-.59,1.49-.59.47,0,.87.13,1.21.4.34.27.59.63.75,1.08l-.97.51c-.23-.61-.56-.92-.99-.92-.29,0-.52.09-.7.26s-.28.4-.28.69.09.54.28.78l2.9,3.8.78-1.31.88.54-1.02,1.62ZM70.16,59.82c0,.59.21,1.08.62,1.48.42.4.93.59,1.54.59.58,0,1.05-.2,1.41-.59l-2.46-3.25c-.34.19-.61.44-.81.76-.2.32-.3.65-.3,1Z"/>
        <path class="cls-2" d="M82.19,62.72h-1.13v-8.77h1.13l3.05,5.34h.05l3.05-5.34h1.13v8.77h-1.13v-5.2l.05-1.47h-.05l-2.74,4.81h-.66l-2.74-4.81h-.05l.05,1.47v5.2Z"/>
        <path class="cls-2" d="M93.74,56.52c.83,0,1.49.22,1.97.67.48.45.72,1.06.72,1.83v3.7h-1.08v-.83h-.05c-.47.69-1.09,1.03-1.86,1.03-.66,0-1.21-.2-1.66-.59-.44-.39-.67-.88-.67-1.47,0-.62.23-1.11.7-1.48.47-.37,1.1-.55,1.88-.55.67,0,1.22.12,1.65.37v-.26c0-.39-.16-.72-.47-1s-.67-.41-1.09-.41c-.63,0-1.13.27-1.49.8l-.99-.62c.55-.78,1.35-1.18,2.42-1.18ZM92.28,60.88c0,.29.12.54.37.73s.54.29.88.29c.47,0,.9-.18,1.27-.53.37-.35.56-.76.56-1.24-.35-.28-.84-.42-1.47-.42-.46,0-.84.11-1.15.33s-.46.49-.46.82Z"/>
        <path class="cls-2" d="M99.77,54.65c0,.22-.08.41-.23.56-.16.16-.34.23-.56.23s-.41-.08-.56-.23c-.16-.15-.23-.34-.23-.56s.08-.41.23-.56.34-.23.56-.23.41.08.56.23c.16.16.23.34.23.56ZM99.54,56.72v6h-1.13v-6h1.13Z"/>
        <path class="cls-2" d="M101.62,56.72h1.08v.83h.05c.17-.29.43-.54.79-.73.35-.2.72-.29,1.11-.29.73,0,1.3.21,1.7.63s.59,1.02.59,1.79v3.77h-1.13v-3.7c-.02-.98-.52-1.47-1.48-1.47-.45,0-.82.18-1.13.54-.3.36-.45.8-.45,1.3v3.32h-1.13v-6Z"/>
        <path class="cls-2" d="M110.94,62.82c-.49,0-.9-.15-1.22-.45-.32-.3-.49-.72-.5-1.26v-3.36h-1.05v-1.03h1.05v-1.84h1.13v1.84h1.47v1.03h-1.47v2.99c0,.4.08.67.23.81.16.14.33.21.53.21.09,0,.18-.01.26-.03.09-.02.17-.05.24-.08l.35,1c-.29.11-.64.16-1.03.16Z"/>
        <path class="cls-2" d="M116.15,62.92c-.88,0-1.61-.3-2.18-.91-.57-.6-.86-1.37-.86-2.29s.28-1.68.83-2.28,1.27-.91,2.13-.91,1.6.29,2.12.86c.53.58.79,1.38.79,2.42v.12h-4.73c.02.59.21,1.06.59,1.42.38.36.82.54,1.35.54.72,0,1.28-.36,1.69-1.08l1,.49c-.27.51-.64.9-1.12,1.19-.48.29-1.02.43-1.62.43ZM114.35,59h3.44c-.03-.42-.2-.76-.51-1.03-.31-.27-.72-.41-1.23-.41-.42,0-.79.13-1.1.39s-.51.61-.61,1.05Z"/>
        <path class="cls-2" d="M120.63,56.72h1.08v.83h.05c.17-.29.43-.54.79-.73.35-.2.72-.29,1.11-.29.73,0,1.3.21,1.7.63s.59,1.02.59,1.79v3.77h-1.13v-3.7c-.02-.98-.52-1.47-1.48-1.47-.45,0-.82.18-1.13.54-.3.36-.45.8-.45,1.3v3.32h-1.13v-6Z"/>
        <path class="cls-2" d="M130.09,56.52c.83,0,1.49.22,1.97.67.48.45.72,1.06.72,1.83v3.7h-1.08v-.83h-.05c-.47.69-1.09,1.03-1.86,1.03-.66,0-1.21-.2-1.66-.59-.44-.39-.67-.88-.67-1.47,0-.62.23-1.11.7-1.48.47-.37,1.1-.55,1.88-.55.67,0,1.22.12,1.65.37v-.26c0-.39-.16-.72-.47-1s-.67-.41-1.09-.41c-.63,0-1.13.27-1.49.8l-.99-.62c.55-.78,1.35-1.18,2.42-1.18ZM128.64,60.88c0,.29.12.54.37.73s.54.29.88.29c.47,0,.9-.18,1.27-.53.37-.35.56-.76.56-1.24-.35-.28-.84-.42-1.47-.42-.46,0-.84.11-1.15.33s-.46.49-.46.82Z"/>
        <path class="cls-2" d="M134.67,56.72h1.08v.83h.05c.17-.29.43-.54.79-.73.35-.2.72-.29,1.11-.29.73,0,1.3.21,1.7.63s.59,1.02.59,1.79v3.77h-1.13v-3.7c-.02-.98-.52-1.47-1.48-1.47-.45,0-.82.18-1.13.54-.3.36-.45.8-.45,1.3v3.32h-1.13v-6Z"/>
        <path class="cls-2" d="M144.66,62.92c-.89,0-1.63-.3-2.22-.91-.58-.62-.87-1.38-.87-2.29s.29-1.69.87-2.29c.59-.6,1.33-.91,2.22-.91.61,0,1.15.15,1.6.46s.8.73,1.03,1.27l-1.03.43c-.32-.75-.88-1.13-1.68-1.13-.51,0-.96.21-1.33.62-.37.42-.55.93-.55,1.54s.18,1.13.55,1.54c.38.42.82.62,1.33.62.82,0,1.4-.38,1.74-1.13l1,.43c-.22.54-.57.96-1.03,1.27-.47.31-1.01.46-1.63.46Z"/>
        <path class="cls-2" d="M151.56,62.92c-.88,0-1.61-.3-2.18-.91-.57-.6-.86-1.37-.86-2.29s.28-1.68.83-2.28,1.27-.91,2.13-.91,1.6.29,2.12.86c.53.58.79,1.38.79,2.42v.12h-4.73c.02.59.21,1.06.59,1.42.38.36.82.54,1.35.54.72,0,1.28-.36,1.69-1.08l1,.49c-.27.51-.64.9-1.12,1.19-.48.29-1.02.43-1.62.43ZM149.76,59h3.44c-.03-.42-.2-.76-.51-1.03-.31-.27-.72-.41-1.23-.41-.42,0-.79.13-1.1.39s-.51.61-.61,1.05Z"/>
      </g>
      <g>
        <path class="cls-2" d="M15.33,47.81c-1.96,0-3.72-.26-5.29-.78-1.57-.52-2.94-1.21-4.11-2.06-1.18-.85-2.17-1.82-2.97-2.91-.81-1.09-1.43-2.22-1.86-3.4l6.53-2.74c.74,1.87,1.81,3.25,3.2,4.15,1.39.89,2.9,1.34,4.51,1.34,1.83,0,3.27-.37,4.31-1.11,1.04-.74,1.57-1.57,1.57-2.48s-.39-1.71-1.18-2.38c-.78-.67-2.26-1.27-4.44-1.8l-4.57-1.11c-1-.22-2.01-.55-3.04-1.01-1.02-.46-1.97-1.04-2.84-1.76-.87-.72-1.58-1.59-2.12-2.61-.54-1.02-.82-2.23-.82-3.62,0-1.57.34-2.96,1.01-4.18.67-1.22,1.6-2.24,2.78-3.07,1.18-.83,2.54-1.46,4.08-1.89,1.54-.43,3.19-.65,4.93-.65,1.44,0,2.82.15,4.15.46,1.33.31,2.56.76,3.69,1.37,1.13.61,2.14,1.38,3.04,2.32.89.94,1.6,2.04,2.12,3.3l-6.4,2.68c-.61-1.39-1.57-2.41-2.87-3.04-1.31-.63-2.63-.95-3.98-.95-.61,0-1.23.08-1.86.23-.63.15-1.2.37-1.7.65-.5.28-.91.64-1.24,1.08-.33.44-.49.91-.49,1.44,0,.87.38,1.56,1.14,2.06.76.5,1.93.95,3.49,1.34l4.9,1.24c3.31.83,5.74,2.08,7.28,3.75,1.54,1.68,2.32,3.65,2.32,5.91,0,1.39-.32,2.7-.95,3.92-.63,1.22-1.53,2.31-2.71,3.27-1.18.96-2.58,1.71-4.21,2.25-1.63.54-3.43.82-5.39.82Z"/>
        <path class="cls-2" d="M36.01,21.16h-5.62v-6.4h5.62V4.97h7.25v9.8h7.9v6.4h-7.9v14.62c0,.81.09,1.54.26,2.21.17.67.43,1.23.78,1.68.74.85,1.68,1.27,2.81,1.27.7,0,1.24-.05,1.63-.16.39-.11.81-.27,1.24-.49l2.22,6.4c-.91.35-1.87.62-2.87.82-1,.2-2.13.29-3.4.29-1.52,0-2.87-.25-4.05-.73-1.18-.49-2.2-1.15-3.07-2-1.87-1.91-2.81-4.51-2.81-7.79v-16.12Z"/>
        <path class="cls-2" d="M85.49,39.12c-1.35,2.48-3.27,4.55-5.75,6.2-2.48,1.65-5.53,2.48-9.14,2.48-2.39,0-4.6-.42-6.63-1.27s-3.78-2.04-5.26-3.56c-1.48-1.52-2.63-3.32-3.46-5.39-.83-2.07-1.24-4.34-1.24-6.82,0-2.31.39-4.5,1.18-6.56.78-2.07,1.88-3.88,3.3-5.42,1.41-1.54,3.12-2.78,5.13-3.69,2-.92,4.22-1.37,6.66-1.37s4.69.42,6.63,1.24c1.94.83,3.58,1.98,4.93,3.46,1.35,1.48,2.38,3.27,3.1,5.36.72,2.09,1.08,4.38,1.08,6.86v.59c-.04.22-.06.41-.06.59-.04.17-.07.35-.07.52h-24.62c.13,1.52.5,2.85,1.11,3.98.61,1.13,1.36,2.07,2.25,2.81.89.74,1.88,1.28,2.97,1.63,1.09.35,2.16.52,3.2.52,2.09,0,3.81-.5,5.16-1.5,1.35-1,2.46-2.24,3.33-3.72l6.2,3.07ZM78.77,26.78c-.09-.65-.29-1.38-.62-2.19-.33-.8-.83-1.54-1.5-2.22-.68-.67-1.55-1.25-2.61-1.73-1.07-.48-2.36-.72-3.89-.72-2.09,0-3.89.62-5.39,1.86-1.5,1.24-2.51,2.91-3.04,5h17.05Z"/>
        <path class="cls-2" d="M111.07,42.84h-.39c-.96,1.26-2.2,2.41-3.72,3.43-1.52,1.02-3.46,1.54-5.81,1.54-1.7,0-3.29-.27-4.77-.82-1.48-.54-2.77-1.31-3.85-2.29-1.09-.98-1.95-2.13-2.58-3.46-.63-1.33-.95-2.8-.95-4.41,0-1.7.34-3.22,1.01-4.57.67-1.35,1.61-2.48,2.81-3.4,1.2-.91,2.62-1.62,4.28-2.12,1.65-.5,3.44-.75,5.35-.75,2.13,0,3.92.21,5.36.62,1.44.41,2.52.79,3.27,1.14v-1.24c0-.96-.21-1.85-.62-2.68-.41-.83-.98-1.54-1.7-2.12-.72-.59-1.53-1.04-2.45-1.37-.91-.33-1.87-.49-2.87-.49-1.61,0-3.06.32-4.34.95-1.28.63-2.43,1.64-3.43,3.04l-5.75-3.79c1.52-2.09,3.42-3.67,5.68-4.73,2.26-1.07,4.83-1.6,7.71-1.6,4.75,0,8.41,1.18,11,3.53,2.59,2.35,3.89,5.7,3.89,10.06v19.46h-7.12v-3.92ZM111.07,33.44c-.96-.57-2.02-1.02-3.2-1.37-1.18-.35-2.53-.52-4.05-.52-2.26,0-4.07.52-5.42,1.57-1.35,1.04-2.02,2.31-2.02,3.79,0,.78.17,1.47.52,2.06.35.59.79,1.1,1.34,1.54.54.44,1.18.76,1.89.98.72.22,1.45.33,2.19.33,1.18,0,2.3-.23,3.36-.69,1.07-.46,1.99-1.07,2.78-1.83s1.41-1.64,1.89-2.65c.48-1,.72-2.07.72-3.2Z"/>
        <path class="cls-2" d="M147.49,0v18.88c-.87-1.4-2.2-2.6-3.98-3.63-1.79-1.02-3.92-1.53-6.4-1.53-2.05,0-4,.42-5.85,1.27-1.85.85-3.47,2.04-4.86,3.56-1.39,1.52-2.51,3.32-3.33,5.39-.83,2.07-1.24,4.34-1.24,6.82s.41,4.76,1.24,6.83c.82,2.07,1.94,3.86,3.33,5.38,1.39,1.53,3.01,2.72,4.86,3.56,1.85.85,3.8,1.28,5.85,1.28,2.48,0,4.61-.52,6.4-1.54,1.78-1.02,3.11-2.23,3.98-3.62v4.11h7.25V0h-7.25ZM147.1,35.11c-.52,1.28-1.21,2.36-2.06,3.23-.84.87-1.85,1.54-3,2.02-1.15.48-2.34.72-3.56.72s-2.46-.24-3.59-.72c-1.13-.48-2.12-1.16-2.97-2.05-.85-.9-1.54-1.97-2.06-3.24-.52-1.26-.78-2.7-.78-4.31s.26-3.04.78-4.31c.52-1.26,1.21-2.34,2.06-3.23.85-.89,1.84-1.58,2.97-2.06,1.13-.48,2.33-.72,3.59-.72s2.41.24,3.56.72,2.16,1.16,3,2.03c.85.87,1.54,1.95,2.06,3.23.52,1.28.79,2.73.79,4.34s-.27,3.06-.79,4.35Z"/>
        <path class="cls-2" d="M170.99,44.93l-13.32-30.17h8.1l8.82,21.23h.33l8.56-21.23h8.03l-20.85,47.96h-7.74l8.09-17.79Z"/>
      </g>
      <path class="cls-1" d="M223.81,40.43l-4.35,7.12h-9.39l4.35-7.12,1.42-2.69h.23l-.18,6.4h2.04l7.52-6.4h.23l-1.87,2.69ZM202.61,42.92c.75-.52,1.42-1.14,2.03-1.86.6-.72,1.09-1.51,1.47-2.38.26-.6.39-1.16.39-1.67s-.12-.97-.36-1.35c-.23-.38-.58-.68-1.04-.9-.46-.22-1.01-.33-1.66-.33-.81,0-1.62.15-2.44.44-.83.29-1.61.7-2.35,1.21-.74.52-1.41,1.14-2.02,1.85-.6.71-1.08,1.48-1.44,2.32-.28.63-.42,1.21-.42,1.73s.11.98.35,1.37c.23.39.58.69,1.04.91.46.22,1.01.33,1.65.33.81,0,1.63-.15,2.45-.44.83-.29,1.61-.7,2.35-1.23ZM199.23,15.55l-13.91,32h8.39c-.16-.05-.32-.11-.47-.18-.79-.36-1.38-.87-1.78-1.54-.4-.66-.6-1.46-.58-2.39.01-.93.27-1.96.76-3.1.56-1.27,1.3-2.47,2.25-3.58.94-1.12,2.01-2.09,3.2-2.93,1.2-.84,2.49-1.5,3.88-1.99,1.38-.49,2.79-.73,4.21-.73,1.17,0,2.14.19,2.93.57.78.38,1.37.92,1.74,1.6.38.68.55,1.48.52,2.4-.03.92-.29,1.92-.76,3-.55,1.27-1.3,2.47-2.24,3.58-.94,1.12-2.01,2.09-3.2,2.93-1.2.84-2.49,1.5-3.88,1.99-.41.15-.83.27-1.24.37h7.56l9.85-16.08h3.36l-.25,7.86h.23l9.37-7.86h3.59l-9.84,16.08h6.39c-.46-.19-.83-.46-1.13-.8-.33-.38-.54-.86-.63-1.45-.09-.58-.03-1.26.17-2.04l3.94-1.35c-.28.77-.31,1.4-.09,1.91.21.51.71.77,1.51.77.71,0,1.36-.16,1.94-.46.57-.31.97-.73,1.2-1.25.22-.5.22-.92.03-1.27-.2-.35-.69-.71-1.47-1.09l-.58-.27c-.37-.18-.71-.4-1-.65-.29-.26-.51-.56-.66-.92-.14-.36-.2-.77-.18-1.24.03-.46.17-.99.43-1.59.29-.67.71-1.3,1.25-1.89.55-.58,1.17-1.08,1.87-1.5s1.46-.75,2.27-.99c.82-.24,1.65-.36,2.51-.36s1.5.11,2,.34c.49.22.85.51,1.09.85.24.35.38.72.42,1.13.04.42.02.81-.05,1.18l-3.69,1.22c.17-1.02-.34-1.53-1.54-1.53-.26,0-.52.03-.78.1s-.51.16-.76.28c-.24.12-.46.27-.65.45-.19.18-.34.39-.44.63-.19.43-.19.8.02,1.09.2.29.62.58,1.26.86l.77.34c.94.42,1.56.98,1.86,1.67.29.7.19,1.64-.33,2.82-.32.75-.77,1.45-1.35,2.1-.58.65-1.24,1.22-2,1.71s-1.58.87-2.47,1.14c-.08.02-.15.05-.23.06h7.14l13.92-32h-55.65Z"/>
    </g>
  </g>
</svg>