<?xml version="1.0" encoding="utf-8"?>
<!-- Generator: Adobe Illustrator 19.0.0, SVG Export Plug-In . SVG Version: 6.00 Build 0)  -->
<svg version="1.1" id="Layer_2" xmlns="http://www.w3.org/2000/svg" xmlns:xlink="http://www.w3.org/1999/xlink" x="0px" y="0px"
	 viewBox="12.4 394.4 65.6 41.7" style="enable-background:new 12.4 394.4 65.6 41.7;" xml:space="preserve">
<style type="text/css">
	.st0{fill:#00A853;}
</style>
<path class="st0" d="M50,427.8l-3.5,8.3h-9.4l3.5-8.3l1.1-3.1h0.2l0.6,7.5h2l6.7-7.5h0.2L50,427.8z M29.1,430.7
	c0.7-0.6,1.3-1.3,1.8-2.2c0.5-0.8,0.9-1.8,1.2-2.8c0.2-0.7,0.2-1.4,0.2-2c-0.1-0.6-0.2-1.1-0.5-1.6c-0.3-0.4-0.7-0.8-1.2-1.1
	c-0.5-0.3-1.1-0.4-1.7-0.4c-0.8,0-1.6,0.2-2.4,0.5c-0.8,0.3-1.5,0.8-2.2,1.4c-0.7,0.6-1.3,1.3-1.8,2.2c-0.5,0.8-0.9,1.7-1.2,2.7
	c-0.2,0.7-0.3,1.4-0.2,2c0.1,0.6,0.2,1.1,0.5,1.6c0.3,0.5,0.7,0.8,1.2,1.1c0.5,0.3,1.1,0.4,1.7,0.4c0.8,0,1.6-0.2,2.4-0.5
	C27.7,431.8,28.4,431.3,29.1,430.7L29.1,430.7z M22.4,394.4l-10,41.7h8.4c-0.2-0.1-0.3-0.1-0.5-0.2c-0.8-0.5-1.5-1.1-2-2
	c-0.5-0.9-0.8-1.9-0.9-3.1c-0.1-1.2,0-2.6,0.4-4c0.4-1.7,1-3.2,1.8-4.7c0.8-1.5,1.8-2.7,2.8-3.8c1.1-1.1,2.3-2,3.6-2.6
	c1.3-0.6,2.7-1,4.1-1c1.2,0,2.2,0.2,3,0.7c0.8,0.5,1.5,1.2,1.9,2.1c0.5,0.9,0.7,1.9,0.8,3.1c0.1,1.2-0.1,2.5-0.4,3.9
	c-0.4,1.7-1,3.2-1.8,4.7c-0.8,1.5-1.8,2.7-2.8,3.8c-1.1,1.1-2.3,2-3.6,2.6c-0.4,0.2-0.8,0.4-1.2,0.5h7.6l7.9-20.9h3.4l0.7,10.2h0.2
	l8.4-10.2h3.6L50,436.1h6.4c-0.5-0.2-0.9-0.6-1.2-1c-0.4-0.5-0.6-1.1-0.8-1.9c-0.2-0.8-0.2-1.6-0.1-2.7l3.8-1.8
	c-0.2,1-0.1,1.8,0.1,2.5c0.3,0.7,0.8,1,1.6,1c0.7,0,1.3-0.2,1.9-0.6c0.5-0.4,0.9-1,1-1.6c0.2-0.7,0.1-1.2-0.1-1.7
	c-0.2-0.5-0.8-0.9-1.6-1.4l-0.6-0.4c-0.4-0.2-0.8-0.5-1.1-0.8c-0.3-0.3-0.6-0.7-0.8-1.2c-0.2-0.5-0.3-1-0.3-1.6c0-0.6,0-1.3,0.2-2.1
	c0.2-0.9,0.6-1.7,1-2.5c0.5-0.8,1-1.4,1.7-2c0.6-0.5,1.4-1,2.1-1.3c0.8-0.3,1.6-0.5,2.5-0.5s1.5,0.1,2,0.4c0.5,0.3,0.9,0.7,1.2,1.1
	c0.3,0.5,0.5,0.9,0.6,1.5c0.1,0.5,0.1,1.1,0.1,1.5l-3.5,1.6c0-1.3-0.5-2-1.7-2c-0.3,0-0.5,0-0.8,0.1s-0.5,0.2-0.7,0.4
	c-0.2,0.2-0.4,0.4-0.6,0.6c-0.2,0.2-0.3,0.5-0.4,0.8c-0.1,0.6-0.1,1,0.2,1.4c0.2,0.4,0.7,0.8,1.4,1.1l0.8,0.4c1,0.5,1.7,1.3,2.1,2.2
	c0.4,0.9,0.4,2.1,0,3.7c-0.2,1-0.6,1.9-1.1,2.7c-0.5,0.8-1.1,1.6-1.8,2.2c-0.7,0.6-1.5,1.1-2.3,1.5c-0.1,0-0.1,0.1-0.2,0.1H68
	l10-41.7H22.4L22.4,394.4z"/>
</svg>
