<?xml version="1.0" encoding="UTF-8"?>
<svg id="Layer_2" data-name="Layer 2" xmlns="http://www.w3.org/2000/svg" viewBox="0 0 459.89 92.76">
  <defs>
    <style>
      .cls-1 {
        fill: #00a853;
      }

      .cls-1, .cls-2 {
        stroke-width: 0px;
      }

      .cls-2 {
        fill: #1f2e38;
      }
    </style>
  </defs>
  <g id="Layer_1-2" data-name="Layer 1">
    <g>
      <g>
        <path class="cls-2" d="M64.88,30.08v33.92h-17V30.08h-4v-14.07h4V0h17v16.01h7v14.07h-7Z"/>
        <path class="cls-2" d="M126.83,43.17h-35.76c0,2.58.97,6.01,3.01,8.05,1.07,1.07,3.22,2.36,7.09,2.36.43,0,3.44-.11,5.58-1.29,1.07-.64,2.25-1.72,3.01-3.22h16.43c-.75,2.68-2.25,6.44-5.8,9.88s-9.13,6.66-19.54,6.66c-6.34,0-13.96-1.4-19.87-7.3-3.11-3.11-7.09-9.02-7.09-18.15,0-8.05,3.01-14.5,7.2-18.58,3.97-3.87,10.2-6.98,19.65-6.98,5.58,0,12.78,1.18,18.47,6.55,6.77,6.44,7.62,14.82,7.62,20.19v1.83ZM111.04,33.29c-.43-1.83-1.5-3.87-2.79-5.16-2.25-2.25-5.37-2.58-7.09-2.58-2.9,0-5.15.75-6.98,2.58-1.18,1.29-2.25,3.01-2.58,5.16h19.44Z"/>
        <path class="cls-2" d="M248.88,64h-17.18v-2c-3.81,2-7.84,3.61-14.5,3.61s-12.35-2.25-16.86-6.66c-4.83-4.72-7.73-11.49-7.73-19.12,0-8.16,3.44-14.82,7.84-19.01,4.72-4.51,11.06-6.44,16.97-6.44,6.56,0,10.41,1.62,14.28,3.62V.07h17.18v63.93ZM228.59,48.11c2.26-2.04,3.65-5.26,3.65-8.16,0-2.68-1.5-5.91-3.22-7.73-1.93-2.04-4.62-3.22-7.84-3.22-3.65,0-6.12,1.61-7.62,3.11-1.93,1.93-3.33,4.94-3.33,8.16,0,2.47,1.07,5.26,3.33,7.52,2.36,2.36,5.15,3.22,7.62,3.22,2.79,0,5.58-1.29,7.41-2.9Z"/>
        <path class="cls-2" d="M187.88,64h-17.18v-2c-3.81,2-7.84,3.61-14.5,3.61s-12.35-2.25-16.86-6.66c-4.83-4.72-7.73-11.49-7.73-19.12,0-8.16,3.44-14.82,7.84-19.01,4.72-4.51,11.06-6.44,16.97-6.44,6.56,0,10.41,1.62,14.28,3.62v-2h17.18v48ZM167.59,48.11c2.26-2.04,3.65-5.26,3.65-8.16,0-2.68-1.5-5.91-3.22-7.73-1.93-2.04-4.62-3.22-7.84-3.22-3.65,0-6.12,1.61-7.62,3.11-1.93,1.93-3.33,4.94-3.33,8.16,0,2.47,1.07,5.26,3.33,7.52,2.36,2.36,5.15,3.22,7.62,3.22,2.79,0,5.58-1.29,7.41-2.9Z"/>
        <path class="cls-2" d="M297.09,16l-12.46,24.59-12.78-24.59h-19.97l23.2,41.45-15.8,30.55h19.23l38.23-72h-19.65Z"/>
        <g>
          <path class="cls-2" d="M18.64,81.08c0,4.22-3.03,7.23-7.4,7.23s-7.4-3.01-7.4-7.23,3.03-7.25,7.4-7.25,7.4,3.03,7.4,7.25ZM15.86,81.08c0-2.81-1.91-4.8-4.61-4.8s-4.61,2-4.61,4.8,1.91,4.78,4.61,4.78,4.61-1.97,4.61-4.78Z"/>
          <path class="cls-2" d="M23.63,92.76h-2.54v-13.76h2.54v1.16c.4-.56,1.27-1.46,2.93-1.46.79,0,2.06.19,3.08,1.21.67.67,1.35,1.79,1.35,3.57,0,2.04-.89,3.14-1.41,3.64-.69.64-1.73,1.16-3.06,1.16-.62,0-1.89-.1-2.89-1.46v5.92ZM24.23,81.56c-.56.48-.85,1.1-.85,1.93s.33,1.52.83,1.95c.33.29.87.6,1.66.6.83,0,1.37-.33,1.7-.64.54-.5.79-1.25.79-1.91s-.27-1.41-.77-1.89c-.46-.42-1.12-.64-1.73-.64-.67,0-1.18.19-1.64.6Z"/>
          <path class="cls-2" d="M42.02,85.49c-.27.67-1.29,2.81-4.43,2.81-1.46,0-2.56-.42-3.45-1.27-1-.94-1.41-2.1-1.41-3.51,0-1.79.73-2.89,1.37-3.53,1.06-1.04,2.31-1.27,3.39-1.27,1.83,0,2.89.73,3.51,1.48.96,1.14,1.08,2.56,1.08,3.53v.21h-6.73c0,.54.15,1.12.44,1.52.27.37.83.85,1.81.85s1.68-.46,2.1-1.18l2.33.37ZM39.69,82.31c-.21-1.23-1.21-1.81-2.14-1.81s-1.91.6-2.12,1.81h4.26Z"/>
          <path class="cls-2" d="M44.26,79h2.54v1.35c.4-.77.94-1.14,1.12-1.25.39-.25.89-.4,1.5-.4.44,0,.79.1,1.08.21l-.33,2.37c-.33-.23-.67-.33-1.18-.33-.48,0-1.18.1-1.68.73-.48.6-.5,1.37-.5,1.99v4.32h-2.54v-9Z"/>
          <path class="cls-2" d="M58.82,79h2.54v9h-2.54v-1.16c-.91,1.31-2.12,1.46-2.76,1.46-2.76,0-4.59-2.16-4.59-4.8s1.81-4.78,4.47-4.78c.69,0,2.04.12,2.89,1.46v-1.16ZM54.08,83.49c0,1.43,1.04,2.56,2.49,2.56s2.49-1.12,2.49-2.56-1.04-2.54-2.49-2.54-2.49,1.1-2.49,2.54Z"/>
          <path class="cls-2" d="M66.74,81.16v6.84h-2.54v-6.84h-1v-2.16h1v-3.08h2.54v3.08h1.75v2.16h-1.75Z"/>
          <path class="cls-2" d="M71.31,73.68c.83,0,1.52.69,1.52,1.52s-.69,1.52-1.52,1.52-1.52-.69-1.52-1.52.69-1.52,1.52-1.52ZM72.57,79v9h-2.54v-9h2.54Z"/>
          <path class="cls-2" d="M83.44,79.98c.89.81,1.52,2.06,1.52,3.53s-.62,2.7-1.52,3.51c-.77.71-1.93,1.27-3.64,1.27s-2.87-.56-3.64-1.27c-.89-.81-1.52-2.06-1.52-3.51s.62-2.72,1.52-3.53c.77-.71,1.93-1.27,3.64-1.27s2.87.56,3.64,1.27ZM82.34,83.51c0-1.41-1.08-2.56-2.54-2.56s-2.54,1.14-2.54,2.56,1.06,2.54,2.54,2.54,2.54-1.16,2.54-2.54Z"/>
          <path class="cls-2" d="M87.1,79h2.54v1.16c.48-.67,1.33-1.46,2.79-1.46.79,0,1.95.23,2.66,1.1.62.77.71,1.66.71,2.54v5.65h-2.54v-4.9c0-.5-.02-1.29-.48-1.77-.39-.42-.94-.46-1.18-.46-.67,0-1.18.23-1.56.79-.37.58-.4,1.23-.4,1.75v4.59h-2.54v-9Z"/>
          <path class="cls-2" d="M103.14,81.14c-.6-.56-1.21-.6-1.48-.6-.6,0-.98.29-.98.73,0,.23.1.58.81.81l.6.19c.71.23,1.77.58,2.29,1.29.27.37.46.91.46,1.5,0,.81-.27,1.62-1,2.29-.73.67-1.6.96-2.7.96-1.87,0-2.93-.89-3.49-1.5l1.33-1.54c.5.58,1.25,1.04,2,1.04.71,0,1.25-.35,1.25-.98,0-.56-.46-.79-.79-.92l-.58-.21c-.64-.23-1.39-.52-1.93-1.08-.42-.44-.69-1-.69-1.72,0-.87.42-1.6.94-2.04.71-.56,1.62-.64,2.35-.64.67,0,1.73.08,2.87.96l-1.25,1.48Z"/>
          <path class="cls-2" d="M124.28,82.83c-.83,1.04-1.1,1.29-1.5,1.68l-.31.31,2.81,3.18h-3.35l-1.35-1.56c-.64.58-2.27,1.87-4.47,1.87-2.85,0-4.34-1.97-4.34-3.97s1.6-3.14,2.22-3.51l1.08-.64c-.48-.48-1.39-1.56-1.39-2.91,0-1.72,1.25-3.45,3.82-3.45,2.41,0,3.72,1.6,3.72,3.3,0,1-.48,2.18-1.95,3.08l-.58.35,2.29,2.62c.94-.92,1.43-1.52,1.73-1.91l1.58,1.56ZM116.44,81.72c-1.06.56-1.97,1.33-1.97,2.39s.87,1.83,2.04,1.83,2.1-.75,2.56-1.21l-2.62-3.01ZM117.4,79.13l.62-.44c.75-.52.96-1.08.96-1.54,0-.69-.42-1.37-1.35-1.37s-1.41.67-1.41,1.29c0,.52.29.96.58,1.31l.6.75Z"/>
          <path class="cls-2" d="M134.15,74.14h1.95l3.68,8.81,3.84-8.81h1.95l2.33,13.86h-2.74l-1.25-8.54-3.72,8.54h-.91l-3.55-8.54-1.41,8.54h-2.74l2.58-13.86Z"/>
          <path class="cls-2" d="M157.08,79h2.54v9h-2.54v-1.16c-.92,1.31-2.12,1.46-2.76,1.46-2.76,0-4.59-2.16-4.59-4.8s1.81-4.78,4.47-4.78c.69,0,2.04.12,2.89,1.46v-1.16ZM152.35,83.49c0,1.43,1.04,2.56,2.49,2.56s2.49-1.12,2.49-2.56-1.04-2.54-2.49-2.54-2.49,1.1-2.49,2.54Z"/>
          <path class="cls-2" d="M163.52,73.68c.83,0,1.52.69,1.52,1.52s-.69,1.52-1.52,1.52-1.52-.69-1.52-1.52.69-1.52,1.52-1.52ZM164.79,79v9h-2.54v-9h2.54Z"/>
          <path class="cls-2" d="M167.4,79h2.54v1.16c.48-.67,1.33-1.46,2.78-1.46.79,0,1.95.23,2.66,1.1.62.77.71,1.66.71,2.54v5.65h-2.54v-4.9c0-.5-.02-1.29-.48-1.77-.39-.42-.94-.46-1.18-.46-.67,0-1.18.23-1.56.79-.37.58-.39,1.23-.39,1.75v4.59h-2.54v-9Z"/>
          <path class="cls-2" d="M181.32,81.16v6.84h-2.54v-6.84h-1v-2.16h1v-3.08h2.54v3.08h1.75v2.16h-1.75Z"/>
          <path class="cls-2" d="M193.47,85.49c-.27.67-1.29,2.81-4.43,2.81-1.46,0-2.56-.42-3.45-1.27-1-.94-1.41-2.1-1.41-3.51,0-1.79.73-2.89,1.37-3.53,1.06-1.04,2.31-1.27,3.39-1.27,1.83,0,2.89.73,3.51,1.48.96,1.14,1.08,2.56,1.08,3.53v.21h-6.73c0,.54.15,1.12.44,1.52.27.37.83.85,1.81.85s1.68-.46,2.1-1.18l2.33.37ZM191.15,82.31c-.21-1.23-1.21-1.81-2.14-1.81s-1.91.6-2.12,1.81h4.26Z"/>
          <path class="cls-2" d="M195.72,79h2.54v1.16c.48-.67,1.33-1.46,2.78-1.46.79,0,1.95.23,2.66,1.1.62.77.71,1.66.71,2.54v5.65h-2.54v-4.9c0-.5-.02-1.29-.48-1.77-.39-.42-.94-.46-1.18-.46-.67,0-1.18.23-1.56.79-.37.58-.39,1.23-.39,1.75v4.59h-2.54v-9Z"/>
          <path class="cls-2" d="M213.88,79h2.54v9h-2.54v-1.16c-.92,1.31-2.12,1.46-2.76,1.46-2.76,0-4.59-2.16-4.59-4.8s1.81-4.78,4.47-4.78c.69,0,2.04.12,2.89,1.46v-1.16ZM209.14,83.49c0,1.43,1.04,2.56,2.49,2.56s2.49-1.12,2.49-2.56-1.04-2.54-2.49-2.54-2.49,1.1-2.49,2.54Z"/>
          <path class="cls-2" d="M219.03,79h2.54v1.16c.48-.67,1.33-1.46,2.78-1.46.79,0,1.95.23,2.66,1.1.62.77.71,1.66.71,2.54v5.65h-2.54v-4.9c0-.5-.02-1.29-.48-1.77-.39-.42-.94-.46-1.18-.46-.67,0-1.18.23-1.56.79-.37.58-.39,1.23-.39,1.75v4.59h-2.54v-9Z"/>
          <path class="cls-2" d="M237.07,81.74c-.54-.5-1.21-.79-2.08-.79-1.68,0-2.54,1.23-2.54,2.54,0,1.48,1.1,2.56,2.62,2.56.56,0,1.31-.17,2-.79v2.47c-.5.25-1.29.56-2.33.56-1.41,0-2.66-.54-3.47-1.31-.69-.64-1.43-1.77-1.43-3.45,0-1.58.64-2.85,1.56-3.66,1.1-.98,2.37-1.16,3.24-1.16.94,0,1.7.19,2.43.54v2.49Z"/>
          <path class="cls-2" d="M248.07,85.49c-.27.67-1.29,2.81-4.43,2.81-1.46,0-2.56-.42-3.45-1.27-1-.94-1.41-2.1-1.41-3.51,0-1.79.73-2.89,1.37-3.53,1.06-1.04,2.31-1.27,3.39-1.27,1.83,0,2.89.73,3.51,1.48.96,1.14,1.08,2.56,1.08,3.53v.21h-6.73c0,.54.15,1.12.44,1.52.27.37.83.85,1.81.85s1.68-.46,2.1-1.18l2.33.37ZM245.74,82.31c-.21-1.23-1.21-1.81-2.14-1.81s-1.91.6-2.12,1.81h4.26Z"/>
        </g>
      </g>
      <path class="cls-1" d="M360.82,74.93h.25c-.5,1-.72,1.76-.93,2.62l-2.36,10.45h-5.12l7.13-11.2c.28-.47.78-1.41,1.03-1.87ZM372.33,76.94l-9.43,11.06h5.38l4.61-10.7c.37-.83.58-1.37,1.12-2.37h-.15c-.43.61-1.14,1.54-1.53,2.01ZM339.24,76.08c.81-1.51.97-2.77.55-3.6-.31-.64-1.04-1.22-2.48-1.22-1.55,0-2.88.61-3.78,1.22-1.33.9-2.58,2.3-3.27,3.6-.72,1.36-.93,2.69-.52,3.55.33.72,1.15,1.23,2.47,1.23s2.68-.51,3.78-1.23c1.21-.79,2.45-2.04,3.25-3.55ZM330.75,16l-38.24,72h31.61c-2.06-.68-3.31-1.9-3.92-3.26-.86-1.91-.77-4.85,1.28-8.7,2.02-3.81,5.06-6.75,7.94-8.66,3.15-2.08,7.43-3.84,11.99-3.84s6.97,1.76,7.91,3.84c.86,1.91.77,4.85-1.25,8.66-2.04,3.85-5.08,6.79-7.96,8.7-2.06,1.36-4.6,2.58-7.39,3.26h11.5l16.57-23.92h8.95l-2.4,9.8c-.31,1.26-.8,2.45-.93,2.77h.21c.59-1.04,1.12-1.76,1.94-2.77l8.01-9.8h8.88l-8.8,23.92h7.18c-1.2-.37-2.11-.86-2.95-1.29l-.61-.32,6.21-6.76.55.72c.53.69,1.8,1.76,3.92,1.76,1.18,0,1.84-.28,2.09-.43.57-.32.85-.72,1.04-1.08.12-.21.27-.57.15-.82-.13-.29-.54-.4-1.34-.58l-1.91-.39c-1.24-.25-2.48-.69-3.09-2.05-.55-1.26-.29-2.69.63-4.42,1.18-2.23,2.95-4.13,5.37-5.71,2.82-1.87,6.16-3.09,9.97-3.09,1.91,0,4.22.32,6.19,2.08l-5.58,6.11c-.66-.72-1.99-1.8-3.93-1.8-.47,0-1.22.08-1.88.43-.46.26-.7.51-.89.87-.27.5-.44.97.73,1.25l2.44.61c1.88.47,2.68,1.33,3.01,2.05.73,1.48.08,3.31-.68,4.75-1.09,2.04-2.64,3.95-5.15,5.64-1.33.88-3.19,1.86-5.51,2.47h29.04l38.24-72h-129.14Z"/>
      <path class="cls-2" d="M6.12,48.11c2.04,1.5,4.51,2.79,6.87,3.54,2.15.75,4.83,1.18,6.66,1.18,1.29,0,3.33-.32,4.4-1.29.75-.75.86-1.4.86-2.25,0-.75-.11-1.5-.86-2.15-1.07-.97-2.79-1.29-4.51-1.72l-4.51-1.07c-2.36-.54-5.8-1.4-8.38-4.19-1.83-1.93-3.11-4.62-3.11-8.27,0-4.62,1.83-8.91,4.51-11.71,3.65-3.76,10.09-5.8,17.18-5.8s12.56,1.93,15.36,3.11l-5.8,10.95c-2.36-1.07-5.91-2.36-9.02-2.36-1.72,0-2.9.32-3.97.97-.97.54-1.5,1.29-1.5,2.36,0,1.5.97,2.25,2.04,2.68,1.61.64,3.01.64,5.69,1.4l3.11.86c2.26.64,5.69,2.36,7.09,3.76,2.36,2.26,3.65,6.01,3.65,9.56,0,5.8-2.47,9.67-4.83,11.92-5.58,5.58-13.75,6.01-17.72,6.01-4.3,0-11.06-.54-19.33-5.58l6.12-11.92Z"/>
    </g>
  </g>
</svg>